<?xml version="1.0" encoding="UTF-8"?>
<svg width="85px" height="82px" viewBox="0 0 85 82" version="1.1" xmlns="http://www.w3.org/2000/svg" xmlns:xlink="http://www.w3.org/1999/xlink">
    <!-- Generator: Sketch 61.2 (89653) - https://sketch.com -->
    <title>noun_contract_3077896</title>
    <desc>Created with Sketch.</desc>
    <g id="Page-1" stroke="none" stroke-width="1" fill="none" fill-rule="evenodd">
        <g id="Custom-Preset" transform="translate(-359.000000, -236.000000)" fill="#fff" fill-rule="nonzero">
            <g id="noun_contract_3077896" transform="translate(359.000000, 236.000000)">
                <path d="M1.39543387,0 C0.625351425,0 0.000738602103,0.624728868 0,1.39624479 L0,80.601968 C0,80.9727855 0.146862216,81.3284493 0.408582476,81.5906568 C0.670302735,81.8528643 1.02530555,82 1.39543387,82 L59.3418369,82 C60.111919,82 60.7359346,81.3734843 60.7359346,80.601968 L60.7359346,65.5225251 C60.7483006,65.0149515 60.4853405,64.5403425 60.0485969,64.2827773 C59.6118533,64.0252121 59.0700366,64.0252121 58.633293,64.2827773 C58.1965494,64.5403425 57.9335893,65.0149515 57.9464031,65.5225251 L57.9464031,79.2043829 L2.78908379,79.2043829 L2.78908379,2.79472349 L57.9464031,2.79472349 L57.9464031,38.0774923 C57.9335893,38.5850659 58.1965494,39.0596749 58.633293,39.3172401 C59.0700366,39.5748053 59.6118533,39.5748053 60.0485969,39.3172401 C60.4853405,39.0596749 60.7483006,38.5850659 60.7359346,38.0774923 L60.7359346,1.39624479 C60.7347493,0.625426403 60.1112228,0 59.3418369,0 L1.39543387,0 L1.39543387,0 Z M15.0928943,7.09819543 C14.3289661,7.09819543 13.70968,7.71863458 13.70968,8.48398506 C13.70968,9.24933554 14.3289661,9.8697747 15.0928943,9.8697747 L45.6417007,9.8697747 C46.4056288,9.8697747 47.0249149,9.24933554 47.0249149,8.48398506 C47.0249149,7.71863458 46.4056288,7.09819543 45.6417007,7.09819543 L15.0928943,7.09819543 Z M7.27106195,16.389813 C6.50713381,16.389813 5.88784768,17.0102522 5.88784768,17.7756027 C5.88784768,18.5409532 6.50713381,19.1613923 7.27106195,19.1613923 L53.463533,19.1613923 C53.9577079,19.1613923 54.4143443,18.8972623 54.6614317,18.4684975 C54.9085192,18.0397327 54.9085192,17.5114727 54.6614317,17.0827078 C54.4143443,16.653943 53.9577079,16.389813 53.463533,16.389813 L7.27106195,16.389813 L7.27106195,16.389813 Z M77.9222007,19.0443101 C77.4807135,19.038751 77.0648536,19.2516387 76.8107593,19.6133913 L51.9953172,54.9104577 C51.9653616,54.9541723 51.9380213,54.999629 51.9134402,55.0465882 C51.7737517,55.2035955 51.6728973,55.3913291 51.61903,55.5946131 L49.0825425,65.3491138 C48.9424461,65.8900823 49.1520335,66.461368 49.608471,66.7826707 C50.0649085,67.1039733 50.6724175,67.1078709 51.1329249,66.792451 L59.4268589,61.1027427 C59.6018523,60.9823952 59.7457586,60.8220668 59.8466931,60.6349984 C59.8802071,60.5978116 59.9116139,60.5587716 59.9407656,60.5180624 L84.7562077,25.2192089 C85.1812816,24.6138489 85.0362347,23.7779001 84.4321852,23.3517707 L78.6746494,19.2886762 C78.4541078,19.1330972 78.1917833,19.0479256 77.9220785,19.0443101 L77.9222007,19.0443101 Z M7.27106195,21.7513927 C6.50713381,21.7513927 5.88784768,22.3718319 5.88784768,23.1371824 C5.88784768,23.9025328 6.50713381,24.522972 7.27106195,24.522972 L53.463533,24.522972 C54.2274611,24.522972 54.8467473,23.9025328 54.8467473,23.1371824 C54.8467473,22.3718319 54.2274611,21.7513927 53.463533,21.7513927 L7.27106195,21.7513927 Z M78.2272428,22.2522983 L81.7984651,24.7725089 L80.6557168,26.3974249 L77.087973,23.8719422 L78.2272428,22.2522983 Z M75.5479564,26.0638453 L79.1157002,28.5895068 L58.5244668,57.8771359 L54.9532444,55.3586232 L75.5480456,26.0638453 L75.5479564,26.0638453 Z M7.27115115,29.7728074 C6.50722303,29.7728074 5.88793696,30.3932466 5.88793696,31.1585971 C5.88793696,31.9239475 6.50722303,32.5443867 7.27115115,32.5443867 L53.4636222,32.5443867 C54.2275503,32.5443867 54.8468364,31.9239475 54.8468364,31.1585971 C54.8468364,30.3932466 54.2275503,29.7728074 53.4636222,29.7728074 L7.27115115,29.7728074 L7.27115115,29.7728074 Z M7.27115115,35.1343871 C6.50722303,35.1343871 5.88793696,35.7548263 5.88793696,36.5201768 C5.88793696,37.2855272 6.50722303,37.9059664 7.27115115,37.9059664 L53.4636222,37.9059664 C54.2275503,37.9059664 54.8468364,37.2855272 54.8468364,36.5201768 C54.8468364,35.7548263 54.2275503,35.1343871 53.4636222,35.1343871 L7.27115115,35.1343871 Z M7.27115115,40.4959668 C6.50722303,40.4959668 5.88793696,41.116406 5.88793696,41.8817565 C5.88793696,42.6471069 6.50722303,43.2675461 7.27115115,43.2675461 L53.4636222,43.2675461 C54.2275503,43.2675461 54.8468364,42.6471069 54.8468364,41.8817565 C54.8468364,41.116406 54.2275503,40.4959668 53.4636222,40.4959668 L7.27115115,40.4959668 L7.27115115,40.4959668 Z M32.5887532,47.241549 C32.4210603,47.2485226 32.2506916,47.2671076 32.0800732,47.2973988 C30.7150544,47.5397243 29.3943648,48.4140371 28.0420115,49.9362789 C28.0408465,49.9380216 28.0396852,49.9397668 28.0385276,49.9415145 L12.1593919,67.9948469 C11.814658,68.3839652 11.7039062,68.9280532 11.8690219,69.4213407 C12.0341376,69.9146283 12.4499164,70.2818164 12.9591137,70.3840371 C13.468311,70.4862579 13.9931993,70.3079076 14.3352696,69.9164371 L30.2090538,51.8684662 L30.2125386,51.8649759 L30.2142805,51.8632307 C31.2974475,50.6460627 32.132032,50.2384933 32.5852247,50.1580696 C33.039336,50.0774493 33.2253047,50.178944 33.5067729,50.460007 C33.7882411,50.7410699 34.0455557,51.2669962 34.1286931,51.7463393 C34.2118304,52.2256377 34.0609238,52.5912528 34.1008201,52.5387093 C34.0735491,52.5747275 34.0479709,52.6120013 34.0241689,52.6504089 L26.5141573,64.7345159 C26.4681737,64.7889495 26.4262524,64.8467009 26.3887333,64.9073017 L24.3226529,68.2617741 L24.2756175,68.3368228 L24.2738756,68.3403132 C24.0006582,68.7814706 23.9831122,69.335148 24.2278471,69.7927805 C24.4725819,70.2504129 24.9424165,70.5424752 25.4603688,70.5589502 C25.978321,70.5754252 26.4657016,70.3138101 26.738919,69.8726526 L27.5089094,68.631715 C27.7073652,68.8394316 27.8492544,69.1119607 28.0803014,69.2722451 C29.1593656,70.0208467 30.4396504,70.3327655 31.8083261,70.5044255 C34.5456776,70.8477721 37.7673502,70.5804714 40.6249346,70.5498032 C41.1781936,70.5439054 41.7157723,70.5452449 42.229349,70.5602752 C42.9157205,70.5802918 43.8382231,70.5408842 44.6682587,70.4607911 C45.1865386,70.4137736 45.6399914,70.0922718 45.8566293,69.6182264 C46.0732672,69.144181 46.019907,68.5902033 45.7167874,68.1664086 C45.4136678,67.7426138 44.9072188,67.5139162 44.3895287,67.5670572 C43.6858983,67.6349616 42.7901984,67.6698298 42.3147073,67.6560675 C41.7499959,67.6395538 41.173832,67.6376308 40.5935385,67.6438502 C37.5956526,67.6760197 34.4154549,67.9029396 32.1689358,67.6211618 C31.0457209,67.4802774 30.1880353,67.2005816 29.7300262,66.8828991 C29.3822871,66.6416637 29.234083,66.3838611 29.1534074,65.9893025 L36.4875292,54.1857848 L36.410878,54.2974844 C37.1308665,53.3491103 37.1623608,52.2666073 36.9857575,51.2484433 C36.8091542,50.2302794 36.3651038,49.2102388 35.5537543,48.4001041 C34.8438446,47.6912318 33.7625685,47.1924083 32.5887808,47.2411987 L32.5887532,47.241549 Z M53.7213917,58.1407469 L56.3257555,59.9803049 L52.5750756,62.5546674 L53.7213917,58.1407469 Z M48.5335354,67.455598 C48.4027481,67.4519404 48.2720682,67.4660306 48.1450527,67.4974854 C48.1159667,67.5041873 48.075223,67.5115863 48.028334,67.5201738 C47.5186086,67.6137048 47.0974084,67.9725726 46.9233954,68.4615952 C46.7493825,68.9506177 46.8489935,69.4955009 47.1847059,69.8909924 C47.5204183,70.2864838 48.0412295,70.4724991 48.5509549,70.3789681 C48.6335214,70.3638573 48.7143754,70.3468781 48.7948459,70.3283539 C49.5115379,70.1737067 50.0003259,69.5075308 49.9337906,68.7760705 C49.8672553,68.0446102 49.2663236,67.4779272 48.5335354,67.4556195 L48.5335354,67.455598 Z M31.2210586,73.4699435 C30.7029206,73.4683911 30.2233113,73.7438886 29.9628947,74.1926652 C29.7024782,74.6414419 29.700818,75.1953178 29.9585394,75.6456534 C30.2162608,76.0959889 30.69421,76.3743673 31.2123479,76.3759262 L47.9432825,76.4247952 C48.4731284,76.4449495 48.9717191,76.173811 49.2435327,75.7177066 C49.5153462,75.2616022 49.5170507,74.6932427 49.2479778,74.2355101 C48.9789049,73.7777775 48.4819495,73.5036422 47.9519923,73.5206062 L31.2210577,73.469992 L31.2210586,73.4699435 Z" id="Shape"></path>
            </g>
        </g>
    </g>
</svg>