<?xml version="1.0" encoding="UTF-8"?>
<svg width="168px" height="36px" viewBox="0 0 168 36" version="1.1" xmlns="http://www.w3.org/2000/svg" xmlns:xlink="http://www.w3.org/1999/xlink">
    <!-- Generator: Sketch 61.2 (89653) - https://sketch.com -->
    <title>Group 5</title>
    <desc>Created with Sketch.</desc>
    <g id="Page-1" stroke="none" stroke-width="1" fill="none" fill-rule="evenodd">
        <g id="Custom-Preset" transform="translate(-158.000000, -521.000000)" fill-rule="nonzero">
            <g id="noun_Document_186982" transform="translate(145.000000, 236.000000)">
                <g id="Group-5" transform="translate(13.000000, 285.000000)">
                    <g id="Group-4" transform="translate(110.000000, 0.000000)">
                        <rect id="Rectangle" fill="#FCB316" x="0" y="31" width="58" height="5"></rect>
                        <rect id="Rectangle" fill="#10357F" x="0" y="0" width="58" height="5"></rect>
                        <path d="M23.462963,11.212766 L17.3935185,25.5744681 L13.4537037,25.5744681 L10.4722222,14.0851064 C10.4722222,13.5531915 10.0462963,13.0212766 9.62037037,12.8085106 C8.44907407,12.2765957 7.1712963,11.8510638 6,11.6382979 L6.10648148,11.212766 L12.3888889,11.212766 C13.2407407,11.212766 13.9861111,11.8510638 14.0925926,12.7021277 L15.6898148,21 L19.5231481,11.212766 C19.5231481,11.212766 23.462963,11.212766 23.462963,11.212766 Z M38.7962963,20.893617 C38.7962963,17.0638298 33.5787037,16.8510638 33.5787037,15.2553191 C33.5787037,14.7234043 34.1111111,14.1914894 35.1759259,14.0851064 C36.4537037,13.9787234 37.7314815,14.1914894 38.7962963,14.7234043 L39.4351852,11.6382979 C38.3703704,11.212766 37.0925926,11 35.9212963,11 C32.3009259,11 29.6388889,12.9148936 29.6388889,15.787234 C29.6388889,17.8085106 31.4490741,18.9787234 32.9398148,19.7234043 C34.4305556,20.4680851 34.8564815,20.893617 34.8564815,21.5319149 C34.8564815,22.4893617 33.6851852,22.9148936 32.6203704,22.9148936 C31.3425926,22.9148936 29.9583333,22.5957447 28.787037,22.0638298 L28.1481481,25.2553191 C29.4259259,25.787234 30.9166667,26 32.3009259,26 C36.2407407,25.787234 38.7962963,23.8723404 38.7962963,20.893617 M48.5925926,25.5744681 L52,25.5744681 L49.0185185,11.212766 L45.8240741,11.212766 C45.0787037,11.212766 44.5462963,11.6382979 44.2268519,12.2765957 L38.6898148,25.5744681 L42.6296296,25.5744681 L43.375,23.4468085 L48.1666667,23.4468085 L48.5925926,25.5744681 Z M44.4398148,20.4680851 L46.3564815,15.0425532 L47.5277778,20.4680851 L44.4398148,20.4680851 Z M28.787037,11.212766 L25.6990741,25.5744681 L21.9722222,25.5744681 L25.0601852,11.212766 L28.787037,11.212766 Z" id="Shape" fill="#10357F"></path>
                    </g>
                    <path d="M30.3679245,8.83018868 L31.5896226,5.68867925 L37,5.68867925 L37,0 L0,0 L0,36 L37,36 L37,30.3113208 L31.8514151,30.3113208 L29.9316038,28.1886792 L28.0117925,30.3113208 L13.5259434,30.3113208 L13.5259434,18.9339623 L8.72641509,18.9339623 L14.7476415,5.77358491 L20.5943396,5.77358491 L21.990566,8.74528302 L21.990566,5.77358491 L29.2334906,5.77358491 L30.3679245,8.83018868 L30.3679245,8.83018868 Z M25.7631579,11.1578947 L25.7631579,9.97368421 L26.3157895,11.1578947 L28.8947368,17 L31.2894737,17 L33.8684211,11.1578947 L34.3289474,9.97368421 L34.3289474,16.9210526 L37,16.9210526 L37,8 L32.5789474,8 L30.5526316,12.5 L30,13.7631579 L29.4473684,12.5 L27.4210526,8 L23,8 L23,16.9210526 L25.7631579,16.9210526 L25.7631579,11.1578947 L25.7631579,11.1578947 Z M20.1510791,17 L23,17 L18.6834532,8 L15.3165468,8 L11,17 L13.8489209,17 L14.6258993,15.2477876 L19.3741007,15.2477876 L20.1510791,17 L20.1510791,17 Z M16.9428571,10.9767442 L17.4571429,10 L17.9714286,10.9767442 L19,13 L16,13 L16.9428571,10.9767442 L16.9428571,10.9767442 Z M15,19 L15,28 L23,28 L23,26.0884956 L17.3829787,26.0884956 L17.3829787,24.4955752 L22.8297872,24.4955752 L22.8297872,22.5840708 L17.3829787,22.5840708 L17.3829787,20.9911504 L23,20.9911504 L23,19.079646 L15,19 L15,19 Z M32.8951049,27.920354 L36,27.920354 L31.5524476,23.460177 L36,19 L32.8951049,19 L30.041958,21.9469027 L27.1888112,19 L24,19 L28.4475524,23.539823 L24,28 L27.020979,28 L29.8741259,25.0530973 L32.8951049,27.920354 L32.8951049,27.920354 Z M35,23.9538462 L37,27 L37,21 L35,23.9538462 L35,23.9538462 Z" id="Shape" fill="#006FCF"></path>
                    <g id="Group-3" transform="translate(45.000000, 0.000000)">
                        <rect id="_Path_" fill="#000000" x="-4.61852778e-14" y="-2.13162821e-14" width="56.6" height="35.8"></rect>
                        <g id="Group" transform="translate(4.000000, 3.100000)">
                            <rect id="Rectangle" fill="#FF5F00" x="17.3" y="3.3" width="14.1" height="23"></rect>
                            <path d="M18.7,14.8 C18.7,10.3 20.8,6.1 24.3,3.3 C18,-1.7 8.8,-0.6 3.8,5.8 C-1.2,12.2 -0.1,21.3 6.3,26.3 C11.6,30.5 19.1,30.5 24.3,26.3 C20.8,23.5 18.7,19.3 18.7,14.8 Z" id="Path" fill="#EB001B"></path>
                            <path d="M46.5,23.9 L46.5,23.4 L46.7,23.4 L46.7,23.3 L46.2,23.3 L46.2,23.4 L46.4,23.4 L46.5,23.9 L46.5,23.9 Z M47.5,23.9 L47.5,23.3 L47.4,23.3 L47.2,23.7 L47,23.3 L46.9,23.3 L46.9,23.9 L47,23.9 L47,23.5 L47.2,23.9 L47.3,23.9 L47.5,23.5 L47.5,23.9 L47.5,23.9 Z" id="Shape" fill="#F79E1B"></path>
                            <path d="M47.9,14.8 C47.9,22.9 41.4,29.4 33.3,29.4 C30,29.4 26.8,28.3 24.3,26.3 C30.6,21.3 31.7,12.1 26.8,5.8 C26.1,4.9 25.3,4.1 24.3,3.3 C30.6,-1.7 39.8,-0.6 44.8,5.8 C46.8,8.3 47.9,11.5 47.9,14.8 L47.9,14.8 Z" id="Path" fill="#F79E1B"></path>
                        </g>
                    </g>
                </g>
            </g>
        </g>
    </g>
</svg>