<?xml version="1.0" encoding="UTF-8"?>
<svg width="180px" height="36px" viewBox="0 0 180 36" version="1.1" xmlns="http://www.w3.org/2000/svg" xmlns:xlink="http://www.w3.org/1999/xlink">
    <!-- Generator: Sketch 61.2 (89653) - https://sketch.com -->
    <title>Group 2</title>
    <desc>Created with Sketch.</desc>
    <defs>
        <path d="M17.9621849,35.9243697 C27.8824256,35.9243697 35.9243697,27.8824256 35.9243697,17.9621849 C35.9243697,8.04194407 27.8824256,0 17.9621849,0 C8.04194407,0 0,8.04194407 0,17.9621849 C0,27.8824256 8.04194407,35.9243697 17.9621849,35.9243697 Z" id="path-1"></path>
    </defs>
    <g id="Page-1" stroke="none" stroke-width="1" fill="none" fill-rule="evenodd">
        <g id="Custom-Preset" transform="translate(-374.000000, -521.000000)">
            <g id="Group-2" transform="translate(374.000000, 521.000000)">
                <g id="currency-mark-bch" transform="translate(48.000000, 0.000000)" fill-rule="nonzero">
                    <g id="Currency/Large/Bitcoin-Cash-(alt)">
                        <g id="item-ico-backup" fill="#2FCF6E">
                            <g id="Mask">
                                <path d="M17.9621849,35.9243697 C27.8824256,35.9243697 35.9243697,27.8824256 35.9243697,17.9621849 C35.9243697,8.04194407 27.8824256,0 17.9621849,0 C8.04194407,0 0,8.04194407 0,17.9621849 C0,27.8824256 8.04194407,35.9243697 17.9621849,35.9243697 Z" id="path-1"></path>
                            </g>
                        </g>
                        <path d="M22.22869,15.8462122 C21.7437477,17.799048 18.556761,16.8552598 17.5176732,16.613998 L18.3954604,13.1473437 C19.4111336,13.3886054 22.7365266,13.8058695 22.22869,15.8462122 L22.22869,15.8462122 Z M21.7203331,21.4412104 C21.1896022,23.5913073 17.3558523,22.4725054 16.1320495,22.187243 L17.0790398,18.3695726 C18.3257369,18.654835 22.2744785,19.1813591 21.7203331,21.4412104 Z M22.1360723,11.89654 L22.8520386,9.04441091 L21.0277814,8.62764117 L20.3352296,11.4140165 C19.8502873,11.3042621 19.365345,11.1945079 18.8804027,11.107001 L19.5729544,8.32013128 L17.725803,7.90336154 L17.0098366,10.755985 C16.6169918,10.6679837 16.2246672,10.60223 15.8318223,10.5142289 L13.3150133,9.94419851 L12.8529653,11.7872801 C12.8529653,11.7872801 14.2156948,12.072048 14.1693859,12.0942955 C14.9082465,12.2698035 15.0466528,12.7305739 15.0237585,13.08159 L14.2156948,16.3287357 C14.2614834,16.3509831 14.3312068,16.3509831 14.4004099,16.3944893 C14.3312068,16.3727362 14.2848979,16.3727362 14.2156948,16.3509831 L13.1068836,20.8924387 C13.0147862,21.1119474 12.7837622,21.4189629 12.2759256,21.309703 C12.2988199,21.3314561 10.9366107,21.0021931 10.9366107,21.0021931 L10.0588235,22.9990295 L12.4372262,23.5255536 C12.8763799,23.6353079 13.3150133,23.7228147 13.7307525,23.832569 L13.0147862,26.7069456 L14.8390434,27.1237154 L15.5550097,24.2715863 C16.0628463,24.4030937 16.5477886,24.5128481 17.0098366,24.6226024 L16.2938703,27.4529783 L18.1181275,27.8697481 L18.8340938,24.9958659 C21.9513571,25.52239 24.2834509,25.2806339 25.2304412,22.5822598 C25.9927164,20.4316684 25.1612381,19.2031122 23.4988017,18.3913258 C24.7226047,18.1278166 25.5998715,17.3822782 25.8308956,15.8462122 C26.1311227,13.7396215 24.4452717,12.6425726 22.1360723,11.89654 Z" id="Shape" fill="#FFFFFF" transform="translate(17.962185, 17.886555) rotate(-32.000000) translate(-17.962185, -17.886555) "></path>
                    </g>
                </g>
                <g id="currency-mark-eth" transform="translate(96.000000, 0.000000)" fill-rule="nonzero">
                    <g id="Currency/Large/Ethereum-(alt)">
                        <g id="item-ico-backup" fill="#6B71D6">
                            <g id="Mask">
                                <path d="M17.9621849,35.9243697 C27.8824256,35.9243697 35.9243697,27.8824256 35.9243697,17.9621849 C35.9243697,8.04194407 27.8824256,0 17.9621849,0 C8.04194407,0 0,8.04194407 0,17.9621849 C0,27.8824256 8.04194407,35.9243697 17.9621849,35.9243697 Z" id="path-1"></path>
                            </g>
                        </g>
                        <g id="path0" transform="translate(10.777311, 5.747899)" fill="#E9ECFF">
                            <path d="M7.44112172,0.58860535 C7.38897642,0.714723508 5.81323664,3.38854544 3.93947776,6.53045353 C2.06571887,9.67229668 0.517048343,12.2841316 0.497887677,12.3345529 C0.473004529,12.4001135 1.49096317,13.0400608 4.06730127,14.5784295 L7.67162845,16.7305602 L11.2749268,14.5772599 C13.86361,13.0302495 14.8683877,12.3979043 14.8432473,12.331629 C14.7130448,11.9886863 7.70615619,0.359240536 7.62970645,0.359240536 C7.57813976,0.359240536 7.49326701,0.462422214 7.44112172,0.58860535 M0.50643925,13.882343 C0.645321935,14.1222989 7.64185864,24.0702342 7.67111407,24.0693246 C7.71946581,24.0678301 14.8726956,13.852844 14.8452071,13.8248394 C14.8189429,13.7985241 8.13270607,17.7780361 7.85378336,17.985894 L7.68281619,18.1133766 L4.22097239,16.0479237 C2.31692936,14.9119506 0.688787071,13.9366628 0.602885558,13.8807186 C0.460466509,13.7879981 0.451914937,13.788128 0.50643925,13.882343" id="Shape"></path>
                        </g>
                    </g>
                </g>
                <g id="BTC">
                    <path d="M36,18 C36,27.94122 27.94122,36 18,36 C8.05878,36 0,27.94122 0,18 C0,8.05878 8.05878,0 18,0 C27.94122,0 36,8.05878 36,18" id="Fill-504" fill="#FFC246"></path>
                    <path d="M26.0722956,15.9960007 C26.4353308,13.4804199 24.5761505,12.1206466 22.0239029,11.214131 L22.848983,7.81469755 L20.7917834,7.28211965 L19.9777044,10.6135644 L18.3715486,10.2169638 L19.1746265,6.87418764 L17.1614313,6.35294118 L16.3363512,9.7523746 L12.2659564,8.73254458 L11.7709084,10.9535077 C11.7709084,10.9535077 13.2670535,11.3047825 13.2340503,11.3274454 C13.8025036,11.4147539 14.2099101,11.9380715 14.169141,12.5285786 L11.9689276,21.8883519 C11.910706,22.0807831 11.7805846,22.241469 11.6072427,22.3349939 C11.4339008,22.4285188 11.2315676,22.4472056 11.0448379,22.3869355 C11.0448379,22.3869355 9.47168534,22.0016664 9.47168534,22.0016664 L8.47058824,24.3812698 L11.0998433,25.0611565 L12.5409831,25.4464256 L11.704902,28.845859 L13.7180973,29.355774 L14.5431773,25.9563406 L16.1713352,26.4322613 L15.3462552,29.8316947 L17.3704515,30.3529412 L18.2065326,26.8968505 C21.6498666,27.5767372 24.2351174,27.3047825 25.3242231,24.0979837 C26.2043084,21.5144143 25.3242231,20.0186636 23.4760438,19.0554908 C24.9150086,18.7602873 25.9807849,17.504349 26.0722956,15.9960007 Z M21.4628485,22.6588902 C20.8357877,25.2424596 16.6113779,23.7920347 15.2472456,23.4974171 L16.3473523,18.9648392 C17.6784814,19.2707882 22.0679072,19.9506749 21.4188442,22.6588902 L21.4628485,22.6588902 Z M22.0789083,15.9620063 C21.5178538,18.3076154 17.9975124,17.0951508 16.8644024,16.8231961 L17.8214953,12.6758874 C18.9656063,12.9705049 22.6289616,13.5144143 22.034904,15.9620063 L22.0789083,15.9620063 Z" id="Shape" fill="#FFFFFF"></path>
                </g>
                <g id="currency-mark-xrp" transform="translate(144.000000, 0.000000)">
                    <g id="Currency/Large/XRP-">
                        <g id="XRP">
                            <g id="Mask" fill="#000000" fill-rule="nonzero">
                                <path d="M17.9621849,35.9243697 C27.8824256,35.9243697 35.9243697,27.8824256 35.9243697,17.9621849 C35.9243697,8.04194407 27.8824256,0 17.9621849,0 C8.04194407,0 0,8.04194407 0,17.9621849 C0,27.8824256 8.04194407,35.9243697 17.9621849,35.9243697 Z" id="path-1"></path>
                            </g>
                            <g id="Shape-Clipped">
                                <mask id="mask-2" fill="white">
                                    <use xlink:href="#path-1"></use>
                                </mask>
                                <g id="path-1"></g>
                                <path d="M23.9748434,10.3991597 L26.4344762,10.3991597 L21.314588,15.7076329 C19.4608355,17.6295973 16.4555094,17.6295973 14.6057692,15.7076329 L9.4858812,10.3991597 L11.9455139,10.3991597 L15.8335794,14.4316734 C17.0092276,15.6474462 18.9111296,15.6474462 20.0827655,14.4316734 L23.9748434,10.3991597 Z M11.9134143,25.1649811 L9.45378148,25.1649811 L14.6057692,19.8203958 C16.4595218,17.8984315 19.464848,17.8984315 21.3186006,19.8203958 L26.4705882,25.1649811 L24.0109554,25.1649811 L20.0907904,21.0963553 C18.9151421,19.8805825 17.0132401,19.8805825 15.8416043,21.0963553 L11.9134143,25.1649811 Z" id="Shape" fill="#FFFFFF" fill-rule="nonzero" mask="url(#mask-2)"></path>
                            </g>
                        </g>
                    </g>
                </g>
            </g>
        </g>
    </g>
</svg>