<?xml version="1.0" encoding="UTF-8"?>
<svg width="20px" height="19px" viewBox="0 0 20 19" version="1.1" xmlns="http://www.w3.org/2000/svg" xmlns:xlink="http://www.w3.org/1999/xlink">
    <!-- Generator: Sketch 61.2 (89653) - https://sketch.com -->
    <title>Combined Shape</title>
    <desc>Created with Sketch.</desc>
    <g id="Symbols" stroke="none" stroke-width="1" fill="none" fill-rule="evenodd">
        <g id="Icons-/-Home-/-Fill" fill="#49DEB5">
            <path d="M10,0 C10.4626667,0 10.9006667,0.145572117 11.2324444,0.409237058 L11.2324444,0.409237058 L19.3557778,6.86596225 C19.7228889,7.15778779 20,7.73666973 20,8.21199335 L20,8.21199335 L20,9.08815127 C20,9.6497735 19.5528889,10.106929 19.0031111,10.106929 L19.0031111,10.106929 L17.6097778,10.106929 C17.4502222,10.106929 17.3204444,10.2395563 17.3204444,10.4023882 L17.3204444,10.4023882 L17.3204444,16.4478324 C17.3204444,17.8549538 16.2,19 14.8228889,19 L14.8228889,19 L12.111,19 L12.1113333,14.3756181 C12.1113333,13.0546016 11.5519251,11.9705211 10.1762317,11.8859083 L10,11.8805924 C8.49566349,11.8805924 7.88866667,12.9995593 7.88866667,14.3756181 L7.88866667,14.3756181 L7.888,19 L5.17688889,19 C3.85507556,19 2.76960142,17.9447254 2.68487839,16.6153725 L2.67955556,16.4478324 L2.67955556,10.4023882 C2.67955556,10.2395563 2.54977778,10.106929 2.39022222,10.106929 L2.39022222,10.106929 L0.996888889,10.106929 C0.447111111,10.106929 0,9.6500006 0,9.08815127 L0,9.08815127 L0,8.21199335 C0,7.73666973 0.277111111,7.15778779 0.644222222,6.86596225 L0.644222222,6.86596225 L8.76755556,0.409237058 C9.09955556,0.145572117 9.53688889,0 10,0 Z" id="Combined-Shape"></path>
        </g>
    </g>
</svg>