<?xml version="1.0" encoding="UTF-8"?>
<svg width="75px" height="90px" viewBox="0 0 75 90" version="1.1" xmlns="http://www.w3.org/2000/svg" xmlns:xlink="http://www.w3.org/1999/xlink">
    <!-- Generator: Sketch 61.2 (89653) - https://sketch.com -->
    <title>Group</title>
    <desc>Created with Sketch.</desc>
    <g id="Page-1" stroke="none" stroke-width="1" fill="none" fill-rule="evenodd">
        <g id="Custom-Preset" transform="translate(-673.000000, -236.000000)">
            <g id="noun_Document_186982" transform="translate(673.000000, 236.000000)">
                <g id="Group">
                    <path d="M0.355135135,0.564734831 C0.355135135,28.2052517 0.355135135,55.8457079 0.355135135,83.4861236 L41.6439527,83.4861236 C41.1814865,82.8370112 40.7468919,82.1679775 40.3651014,81.4636517 L2.38216216,81.4636517 L2.38216216,2.58720674 L61.1659459,2.58720674 L61.1659459,52.9417416 C61.8544257,53.0673371 62.5313514,53.2240787 63.192973,53.4196517 L63.192973,0.564734831 L0.355135135,0.564734831 Z" id="Path" fill="#fff"></path>
                    <path d="M15.7218243,48.9134831 C15.7218243,49.5869663 15.7218243,50.2604494 15.7218243,50.9340337 L47.8277027,50.9340337 L47.8277027,48.9134831 L15.7218243,48.9134831 Z" id="Path" fill="#fff"></path>
                    <path d="M15.7221284,56.8128539 C15.7221284,57.4863371 15.7221284,58.1598202 15.7221284,58.8333034 L43.3225338,58.8333034 C44.004527,58.1060225 44.7367905,57.4299101 45.5217568,56.8128539 L15.7221284,56.8128539 Z" id="Path" fill="#fff"></path>
                    <path d="M15.7221284,64.7111124 C15.7221284,65.3846966 15.7221284,66.0581798 15.7221284,66.7316629 L38.803277,66.7316629 C39.0040541,66.0427079 39.2335135,65.3666966 39.5060473,64.7111124 L15.7221284,64.7111124 Z" id="Path" fill="#fff"></path>
                    <path d="M57.6308108,55.2071123 C53.1186493,55.2071123 48.791362,56.9958636 45.6009626,60.1794539 C42.4105632,63.3630441 40.6184109,67.6808097 40.6187837,72.1828315 C40.6191269,81.5570429 48.2354862,89.1565281 57.6308108,89.1565281 C62.1429547,89.1569001 66.4704296,87.3687891 69.6611872,84.185581 C72.8519448,81.0023729 74.6447636,76.6848357 74.6447636,72.1828315 C74.6451364,67.6804768 72.8527198,63.36242 69.6619039,60.1787745 C66.471088,56.995129 62.1433059,55.2067403 57.6308108,55.2071123 L57.6308108,55.2071123 Z M56.6172973,64.0929438 L58.6443243,64.0929438 L58.6443243,66.1865056 L56.6172973,66.1865056 L56.6172973,64.0929438 Z M56.6172973,68.3906966 L58.6443243,68.3906966 L58.6443243,80.2727191 L56.6172973,80.2727191 L56.6172973,68.3906966 Z" id="Shape" fill="#fff" fill-rule="nonzero"></path>
                    <g transform="translate(22.000000, 21.000000)">
                        <g id="LSK" stroke="#fff">
                            <path d="M9.96480597,19.9996418 C4.46938308,19.9996418 0.0145572139,15.5448159 0.0145572139,10.049393 C0.0145572139,4.55397015 4.46938308,0.0991442786 9.96480597,0.0991442786 C15.4602289,0.0991442786 19.9150547,4.55397015 19.9150547,10.049393 C19.9150547,15.5448159 15.4602289,19.9996418 9.96480597,19.9996418 Z" id="Fill-504"></path>
                        </g>
                        <g id="eloop" transform="translate(2.000000, 6.000000)" fill="#4ADEB5" fill-rule="nonzero">
                            <path d="M7.32551414,0 C7.33708226,0.102409639 7.34286632,0.207831325 7.34286632,0.313253012 C7.34286632,1.05590677 7.07893443,1.73560504 6.64363789,2.25593907 C6.12204881,2.87942337 5.35441856,3.27409639 4.5,3.27409639 C2.93251928,3.27409639 1.65713368,1.94578313 1.65713368,0.313253012 C1.65713368,0.207831325 1.66291774,0.102409639 1.67448586,0 L0.0115681234,0 C0.0057840617,0.102409639 0,0.207831325 0,0.313253012 C0,2.89759036 2.01863753,5 4.5,5 C6.98136247,5 9,2.89759036 9,0.313253012 C9,0.207831325 8.99421594,0.102409639 8.98843188,0 L7.32551414,0 Z" id="Path"></path>
                            <path d="M8.70051414,9 C8.67448586,8.84048724 8.65713368,8.67807425 8.65713368,8.51276102 C8.65713368,6.94083527 9.93251928,5.66183295 11.5,5.66183295 C13.0674807,5.66183295 14.3428663,6.94083527 14.3428663,8.51276102 C14.3428663,8.67807425 14.3284062,8.84048724 14.2994859,9 L15.9739717,9 C15.9913239,8.84048724 16,8.67807425 16,8.51276102 C16,6.02436195 13.9813625,4 11.5,4 C9.01863753,4 7,6.02436195 7,8.51276102 C7,8.67807425 7.00867609,8.84048724 7.02602828,9 L8.70051414,9 Z" id="Path"></path>
                        </g>
                    </g>
                </g>
            </g>
        </g>
    </g>
</svg>