<?xml version="1.0" encoding="UTF-8" standalone="no"?><!DOCTYPE svg PUBLIC "-//W3C//DTD SVG 1.1//EN" "http://www.w3.org/Graphics/SVG/1.1/DTD/svg11.dtd"><svg width="100%" height="100%" viewBox="0 0 140 36" version="1.1" xmlns="http://www.w3.org/2000/svg" xmlns:xlink="http://www.w3.org/1999/xlink" xml:space="preserve" xmlns:serif="http://www.serif.com/" style="fill-rule:evenodd;clip-rule:evenodd;stroke-linejoin:round;stroke-miterlimit:2;"><clipPath id="_clip1"><rect x="5.309" y="-4.425" width="45.921" height="45.921"/></clipPath><g clip-path="url(#_clip1)"><g><path d="M51.632,35.827l-47.38,0c-1.507,-0.014 -2.725,-1.239 -2.725,-2.754l0,-29.708c0,-1.521 1.232,-2.754 2.753,-2.754l47.323,0c1.522,0 2.754,1.233 2.754,2.754l0,29.715c-0.007,1.508 -1.218,2.733 -2.725,2.747" style="fill:#ef809f;fill-rule:nonzero;"/><path d="M17.381,32.087c1.197,0 2.113,-0.803 2.113,-1.979c0,-1.092 -0.775,-1.563 -1.726,-1.845c-0.606,-0.176 -0.986,-0.31 -0.986,-0.74c0,-0.359 0.261,-0.641 0.676,-0.641c0.352,0 0.613,0.205 0.803,0.515l0.993,-0.627c-0.31,-0.684 -1.007,-1.036 -1.761,-1.036c-1.197,0 -1.958,0.86 -1.958,1.86c0,0.796 0.479,1.408 1.656,1.753c0.64,0.184 1.049,0.31 1.049,0.817c0,0.479 -0.345,0.775 -0.845,0.775c-0.536,0 -0.944,-0.345 -1.191,-0.662l-0.824,0.824c0.444,0.606 1.163,0.986 2.001,0.986m4.838,0c-1.267,0 -2.296,-1.014 -2.296,-2.247c0,-1.232 1.029,-2.246 2.296,-2.246c1.268,0 2.296,1.014 2.296,2.246c0,1.233 -1.028,2.247 -2.296,2.247m0,-1.127c0.613,0 1.099,-0.486 1.099,-1.12c0,-0.633 -0.486,-1.119 -1.099,-1.119c-0.619,0 -1.098,0.486 -1.098,1.119c0,0.641 0.486,1.12 1.098,1.12m5.262,-4.021l0,-1.127l-0.176,0c-1.458,0 -2.177,0.972 -2.177,2.113l0,4.05l1.198,0l0,-1.775c0,-0.592 0.457,-1.015 1.119,-1.029l0,-1.141c-0.472,0 -0.852,0.141 -1.119,0.423l0,-0.458c0,-0.746 0.485,-1.084 1.155,-1.056m2.613,5.148c-1.268,0 -2.296,-1.014 -2.296,-2.247c0,-1.232 1.028,-2.246 2.296,-2.246c1.267,0 2.296,1.014 2.296,2.246c0,1.233 -1.029,2.247 -2.296,2.247m0,-1.127c0.619,0 1.098,-0.486 1.098,-1.12c0,-0.633 -0.486,-1.119 -1.098,-1.119c-0.613,0 -1.099,0.486 -1.099,1.119c0,0.641 0.486,1.12 1.099,1.12m4.106,-2.761l0,-0.486l-1.162,0l0,4.262l1.197,0l0,-1.944c0,-0.705 0.416,-1.099 1.134,-1.099l0,-1.282c-0.542,-0.021 -0.93,0.162 -1.169,0.549m3.057,1.599l0,-1.042c0.267,0.282 0.64,0.422 1.119,0.422l0,-1.134c-0.648,-0.014 -1.119,-0.45 -1.119,-1.028l0,-0.669l-1.198,0l0,3.522c0,1.141 0.712,2.113 2.177,2.113l0.176,0l0,-1.127c-0.669,0.021 -1.155,-0.31 -1.155,-1.057m2.584,2.247c0.437,0 0.803,-0.359 0.803,-0.803c0,-0.437 -0.359,-0.803 -0.803,-0.803c-0.443,0 -0.803,0.359 -0.803,0.803c0,0.444 0.36,0.803 0.803,0.803" style="fill:#fff;fill-rule:nonzero;"/><path d="M26.044,16.98c0.373,0.366 0.38,0.965 0.014,1.338l-0.071,0.077c-0.366,0.374 -0.964,0.381 -1.338,0.014l-2.113,-2.091c-0.584,-0.585 -0.662,-1.303 -0.296,-1.684l0.071,-0.077c0.303,-0.317 0.803,-0.345 1.148,-0.078c0.162,0.127 0.401,0.099 0.535,-0.063c0.127,-0.162 0.099,-0.402 -0.063,-0.535c-0.655,-0.514 -1.592,-0.451 -2.169,0.141l-0.071,0.077c-0.683,0.704 -0.549,1.895 0.303,2.747l2.12,2.113c0.683,0.655 1.761,0.641 2.423,-0.035l0.077,-0.078c0.648,-0.676 0.634,-1.747 -0.035,-2.409c-0.148,-0.148 -0.387,-0.148 -0.535,0.007c-0.155,0.148 -0.155,0.388 0,0.536m-1.268,-11.347l0.866,7.114c0.021,0.204 0.212,0.359 0.423,0.331c0.204,-0.021 0.359,-0.212 0.331,-0.423l-0.866,-7.142l-0.007,-0.042c-0.148,-0.592 0.218,-1.254 0.711,-1.359c0.275,-0.057 0.563,-0.007 0.796,0.148c0.232,0.155 0.394,0.394 0.451,0.669l1.507,6.437c0.049,0.205 0.253,0.331 0.458,0.282c0.204,-0.049 0.331,-0.254 0.281,-0.458l-1.5,-6.416c-0.091,-0.465 -0.373,-0.881 -0.775,-1.148c-0.401,-0.268 -0.901,-0.359 -1.373,-0.261c-0.93,0.197 -1.535,1.282 -1.303,2.268" style="fill:#fff;fill-rule:nonzero;"/><path d="M32.721,13.986l1.711,-8.522c0.197,-0.916 -0.345,-1.838 -1.253,-2.106c-1.015,-0.253 -2.036,0.338 -2.297,1.338l-1.894,6.487c-0.057,0.204 0.056,0.416 0.26,0.472c0.205,0.056 0.416,-0.056 0.472,-0.261l1.895,-6.493c0.162,-0.599 0.768,-0.958 1.359,-0.81c0.507,0.155 0.824,0.683 0.712,1.218l-1.712,8.529c-0.042,0.205 0.092,0.409 0.296,0.451c0.211,0.035 0.416,-0.098 0.451,-0.303m-4.304,8.213c-2.711,0 -4.972,-1.987 -4.972,-4.811c0,-0.211 -0.169,-0.38 -0.38,-0.38c-0.212,0 -0.381,0.169 -0.381,0.38c0,3.268 2.627,5.571 5.733,5.571c0.212,0 0.381,-0.169 0.381,-0.38c0,-0.211 -0.169,-0.38 -0.381,-0.38m-1.338,-6.642c-0.056,0.211 -0.19,0.401 -0.373,0.521l-0.085,0.049c-0.436,0.296 -1.028,0.184 -1.324,-0.253l-1.662,-2.472c-0.451,-0.69 -0.394,-1.409 0.042,-1.712l0.078,-0.056c0.563,-0.324 1.035,-0.078 1.521,0.634l1.388,2.07c0.119,0.177 0.352,0.219 0.528,0.106c0.176,-0.113 0.218,-0.352 0.105,-0.528l-1.387,-2.071c-0.69,-1 -1.535,-1.444 -2.557,-0.852l-0.105,0.07c-0.817,0.557 -0.916,1.754 -0.247,2.761l1.662,2.48c0.536,0.781 1.592,0.986 2.374,0.457l0.084,-0.056c0.331,-0.225 0.571,-0.563 0.684,-0.951c0.056,-0.204 -0.064,-0.408 -0.268,-0.465c-0.197,-0.056 -0.402,0.064 -0.458,0.268" style="fill:#fff;fill-rule:nonzero;"/><path d="M29.594,16.811c-0.789,0.443 -1.282,1.267 -1.339,2.528c-0.014,0.211 0.148,0.388 0.36,0.402c0.211,0.007 0.387,-0.148 0.401,-0.36c0.056,-1.141 0.5,-1.753 1.211,-2.021c0.381,-0.141 0.796,-0.169 1.163,-0.134l0.091,0.014c0.486,0.092 0.641,-0.634 0.155,-0.746l-2.923,-0.655c-1.366,-0.374 -1.578,-0.881 -1.324,-1.726c0.113,-0.366 0.331,-0.556 0.676,-0.634c0.226,-0.049 0.472,-0.042 0.712,0c0.07,0.014 0.119,0.021 0.14,0.028l4.438,1.036l0.084,0.028c0.071,0.028 0.148,0.084 0.226,0.162c0.295,0.317 0.464,0.916 0.38,1.902c-0.289,3.451 -1.895,5.592 -5.712,5.557c-0.211,0 -0.381,0.169 -0.381,0.373c0,0.211 0.17,0.38 0.374,0.38c4.282,0.035 6.156,-2.451 6.472,-6.254c0.099,-1.183 -0.119,-1.993 -0.577,-2.479c-0.254,-0.268 -0.521,-0.395 -0.726,-0.423l-4.387,-1.021c-0.029,-0.007 -0.099,-0.028 -0.198,-0.042c-0.331,-0.057 -0.676,-0.064 -1.014,0.007c-0.591,0.133 -1.042,0.507 -1.232,1.155c-0.367,1.218 0.021,2.176 1.866,2.676l1.064,0.247Z" style="fill:#fff;fill-rule:nonzero;"/></g></g><g><path d="M135.488,21.537c-1.18,0 -2.147,0.954 -2.147,2.147c0,1.18 0.954,2.146 2.147,2.146c1.18,0 2.146,-0.954 2.146,-2.146c0,-1.18 -0.954,-2.147 -2.146,-2.147" style="fill-rule:nonzero;"/><path d="M128.446,14.91l0,-0.728l3.414,0l0,11.41l-3.414,0l0,-0.728c-0.966,0.652 -2.134,1.041 -3.389,1.041c-3.326,0 -6.024,-2.698 -6.024,-6.024c0,-3.327 2.698,-6.025 6.024,-6.025c1.268,0 2.423,0.389 3.389,1.054Zm-3.1,7.908c1.707,0 3.1,-1.318 3.1,-2.937c0,-1.62 -1.38,-2.937 -3.1,-2.937c-1.707,0 -3.1,1.317 -3.1,2.937c0,1.619 1.393,2.937 3.1,2.937Z" style="fill-rule:nonzero;"/><path d="M112.97,13.868c-1.368,0 -2.661,0.427 -3.514,1.594l0,-1.28l-3.402,0l0,11.41l3.439,0l0,-6c0,-1.732 1.168,-2.586 2.561,-2.586c1.506,0 2.36,0.891 2.36,2.561l0,6.025l3.414,0l0,-7.255c0.012,-2.661 -2.097,-4.469 -4.858,-4.469" style="fill-rule:nonzero;"/><path d="M101.109,15.663l0,-1.481l-3.502,0l0,11.41l3.502,0l0,-5.335c0,-1.795 1.945,-2.761 3.301,-2.761l0.038,0l0,-3.314c-1.369,0 -2.649,0.59 -3.339,1.481" style="fill-rule:nonzero;"/><path d="M92.411,14.91l0,-0.728l3.414,0l0,11.41l-3.414,0l0,-0.728c-0.967,0.652 -2.134,1.041 -3.389,1.041c-3.327,0 -6.025,-2.698 -6.025,-6.024c0,-3.327 2.698,-6.025 6.025,-6.025c1.267,0 2.422,0.389 3.389,1.054Zm-3.101,7.908c1.707,0 3.101,-1.318 3.101,-2.937c0,-1.62 -1.381,-2.937 -3.101,-2.937c-1.707,0 -3.1,1.317 -3.1,2.937c0,1.619 1.393,2.937 3.1,2.937Z" style="fill-rule:nonzero;"/><rect x="78.026" y="9.099" width="3.577" height="16.493" style="fill-rule:nonzero;"/><path d="M75.566,9.086l-3.702,0c0,3.038 -1.394,5.824 -3.829,7.644l-1.468,1.105l5.686,7.757l4.681,0l-5.234,-7.142c2.473,-2.46 3.866,-5.787 3.866,-9.364" style="fill-rule:nonzero;"/><rect x="62.324" y="9.086" width="3.791" height="16.505" style="fill-rule:nonzero;"/></g></svg>