<?xml version="1.0" encoding="UTF-8"?>
<svg width="20px" height="19px" viewBox="0 0 20 19" version="1.1" xmlns="http://www.w3.org/2000/svg" xmlns:xlink="http://www.w3.org/1999/xlink">
    <!-- Generator: Sketch 61.2 (89653) - https://sketch.com -->
    <title>Shape</title>
    <desc>Created with Sketch.</desc>
    <g id="Symbols" stroke="none" stroke-width="1" fill="none" fill-rule="evenodd">
        <g id="Icons-/-Bank-/-Outline" fill="#49DEB5">
            <path d="M9.12733333,0.183338368 C9.60266667,-0.0611127894 10.3975556,-0.0611127894 10.8726667,0.183338368 L10.8726667,0.183338368 L19.4604444,4.60911983 C19.7682222,4.7675854 20,5.15069394 20,5.5000385 L20,5.5000385 L20,6.35831867 C20,6.82268584 19.6266667,7.20106742 19.1682222,7.20106742 L19.1682222,7.20106742 L17.7404444,7.20106742 L17.7404444,8.51358556 C17.7404444,8.81385981 17.4991111,9.05808588 17.2026667,9.05808588 L17.2026667,9.05808588 L17.114,9.05808588 L17.114,13.7388979 L17.2026667,13.7388979 C17.4991111,13.7388979 17.7404444,13.9831239 17.7404444,14.2836233 L17.7404444,14.2836233 L17.7404444,15.5970418 L18.6022222,15.5970418 C19.3728889,15.5970418 20,16.2320296 20,17.0128777 L20,17.0128777 L20,17.5841641 C20,18.3647871 19.3728889,19 18.6022222,19 L18.6022222,19 L1.39777778,19 C0.627111111,19 0,18.3647871 0,17.5841641 L0,17.5841641 L0,17.0128777 C0,16.2320296 0.627111111,15.5970418 1.39777778,15.5970418 L1.39777778,15.5970418 L2.25955556,15.5970418 L2.25955556,14.2836233 C2.25955556,13.9831239 2.50088889,13.7388979 2.79733333,13.7388979 L2.79733333,13.7388979 L2.886,13.7388979 L2.886,9.05808588 L2.79733333,9.05808588 C2.50088889,9.05808588 2.25955556,8.81385981 2.25955556,8.51358556 L2.25955556,8.51358556 L2.25955556,7.20106742 L0.832,7.20106742 C0.373333333,7.20106742 0,6.82268584 0,6.35831867 L0,6.35831867 L0,5.5000385 C0,5.15069394 0.231777778,4.7675854 0.539777778,4.60911983 L0.539777778,4.60911983 Z M18.6022222,16.2502621 L1.39777778,16.2502621 C0.982888889,16.2502621 0.645111111,16.5924037 0.645111111,17.0128777 L0.645111111,17.0128777 L0.645111111,17.5841641 C0.645111111,18.004413 0.982888889,18.3467797 1.39777778,18.3467797 L1.39777778,18.3467797 L18.6022222,18.3467797 C19.0171111,18.3467797 19.3548889,18.004413 19.3548889,17.5841641 L19.3548889,17.5841641 L19.3548889,17.0128777 C19.3548889,16.5924037 19.0171111,16.2502621 18.6022222,16.2502621 L18.6022222,16.2502621 Z M5.60666667,7.20106742 L2.90511111,7.20106742 L2.90511111,8.40464047 L2.99355556,8.40464047 C3.28977778,8.40464047 3.53133333,8.64886654 3.53111111,8.94936589 L3.53111111,8.94936589 L3.53111111,13.847843 C3.53111111,14.1481172 3.28955556,14.3923433 2.99333333,14.3923433 L2.99333333,14.3923433 L2.90488889,14.3923433 L2.90488889,15.5970418 L5.60666667,15.5970418 L5.60666667,14.3572287 L5.51822222,14.3572287 C5.22177778,14.3572287 4.98044444,14.1130027 4.98044444,13.8125033 L4.98044444,13.8125033 L4.98044444,8.91357608 C4.98044444,8.61352691 5.22177778,8.36885066 5.51822222,8.36885066 L5.51822222,8.36885066 L5.60666667,8.36885066 L5.60666667,7.20106742 Z M8.00377778,7.20106742 L6.25155556,7.20106742 L6.25155556,8.47802084 C6.25155556,8.7782951 6.01066667,9.02252116 5.71422222,9.02252116 L5.71422222,9.02252116 L5.62555556,9.02252116 L5.62555556,13.7035582 L5.71422222,13.7035582 C6.01066667,13.7035582 6.25155556,13.9477843 6.25155556,14.2482837 L6.25155556,14.2482837 L6.25155556,15.5970418 L8.00377778,15.5970418 L8.00377778,14.2482837 C8.00377778,13.9477843 8.24511111,13.7035582 8.54133333,13.7035582 L8.54133333,13.7035582 L8.62977778,13.7035582 L8.62977778,9.02252116 L8.54133333,9.02252116 C8.24511111,9.02252116 8.00377778,8.7782951 8.00377778,8.47802084 L8.00377778,8.47802084 L8.00377778,7.20106742 Z M11.3504444,7.20129251 L8.64866667,7.20129251 L8.64866667,8.36907576 L8.73733333,8.36907576 C9.034,8.36907576 9.27488889,8.61375201 9.27488889,8.91380117 L9.27488889,8.91380117 L9.27488889,13.8129535 C9.27488889,14.1134529 9.034,14.3576789 8.73733333,14.3576789 L8.73733333,14.3576789 L8.64866667,14.3576789 L8.64866667,15.597492 L11.3504444,15.597492 L11.3504444,14.3927935 L11.2624444,14.3927935 C10.9657778,14.3927935 10.7248889,14.1485674 10.7248889,13.8482931 L10.7248889,13.8482931 L10.7248889,8.94959098 C10.7248889,8.64909163 10.9657778,8.40486557 11.2624444,8.40486557 L11.2624444,8.40486557 L11.3504444,8.40486557 L11.3504444,7.20129251 Z M13.7484444,7.20106742 L11.9955556,7.20106742 L11.9955556,8.51358556 C11.9955556,8.81385981 11.7542222,9.05808588 11.4577778,9.05808588 L11.4577778,9.05808588 L11.37,9.05808588 L11.37,13.7388979 L11.4577778,13.7388979 C11.7542222,13.7388979 11.9955556,13.9831239 11.9955556,14.2836233 L11.9955556,14.2836233 L11.9955556,15.5970418 L13.7484444,15.5970418 L13.7484444,14.2836233 C13.7484444,13.9831239 13.9893333,13.7388979 14.2857778,13.7388979 L14.2857778,13.7388979 L14.3742222,13.7388979 L14.3742222,9.05808588 L14.2857778,9.05808588 C13.9893333,9.05808588 13.7484444,8.81385981 13.7484444,8.51358556 L13.7484444,8.51358556 L13.7484444,7.20106742 Z M17.0951111,7.20106742 L14.3935556,7.20106742 L14.3935556,8.40464047 L14.4817778,8.40464047 C14.7784444,8.40464047 15.0195556,8.64886654 15.0195556,8.94936589 L15.0195556,8.94936589 L15.0195556,13.848068 C15.0195556,14.1483423 14.7784444,14.3925684 14.4817778,14.3925684 L14.4817778,14.3925684 L14.3935556,14.3925684 L14.3935556,15.5972669 L17.0951111,15.5972669 L17.0951111,14.3925684 L17.0066667,14.3925684 C16.7102222,14.3925684 16.4688889,14.1483423 16.4688889,13.848068 L16.4688889,13.848068 L16.4688889,8.94936589 C16.4688889,8.64886654 16.7102222,8.40464047 17.0066667,8.40464047 L17.0066667,8.40464047 L17.0951111,8.40464047 L17.0951111,7.20106742 Z M10,0.647480438 C9.77777778,0.647480438 9.56666667,0.690698322 9.42,0.766104526 L9.42,0.766104526 L0.832,5.1914358 C0.741333333,5.23825517 0.645111111,5.39694584 0.645111111,5.5000385 L0.645111111,5.5000385 L0.645111111,6.35831867 C0.645111111,6.46231171 0.728888889,6.54762201 0.832,6.54762201 L0.832,6.54762201 L19.1682222,6.54762201 C19.2711111,6.54762201 19.3548889,6.46231171 19.3548889,6.35831867 L19.3546667,6.35831867 L19.3546667,5.5000385 C19.3546667,5.39672075 19.2586667,5.23825517 19.168,5.1914358 L19.168,5.1914358 L10.5797778,0.766104526 C10.4335556,0.690698322 10.2222222,0.647480438 10,0.647480438 Z M10,2.05611335 C10.9215556,2.05611335 11.6713333,2.81490235 11.6713333,3.74813854 C11.6713333,4.68137473 10.9217778,5.44083901 10,5.44083901 C9.07822222,5.44083901 8.32866667,4.68137473 8.32866667,3.74813854 C8.32866667,2.81490235 9.07844444,2.05611335 10,2.05611335 Z M10,2.70978385 C9.43422222,2.70978385 8.97377778,3.17572667 8.97377778,3.74813854 C8.97377778,4.3210006 9.43422222,4.78716851 10,4.78716851 C10.5657778,4.78716851 11.026,4.32077551 11.026,3.74813854 C11.026,3.17572667 10.5657778,2.70978385 10,2.70978385 Z" id="Shape"></path>
        </g>
    </g>
</svg>