<?xml version="1.0" encoding="UTF-8"?>
<svg width="20px" height="20px" viewBox="0 0 20 20" version="1.1" xmlns="http://www.w3.org/2000/svg" xmlns:xlink="http://www.w3.org/1999/xlink">
    <!-- Generator: Sketch 61.2 (89653) - https://sketch.com -->
    <title>Shape</title>
    <desc>Created with Sketch.</desc>
    <defs>
        <path d="M19.5907072,19.1370702 C19.8166822,19.1370702 20,19.3300369 20,19.5685351 C20,19.8064912 19.8166822,20 19.5907072,20 L19.5907072,20 L0.4090228,20 C0.183317809,20 0,19.8064912 0,19.5685351 C0,19.3300369 0.183317809,19.1370702 0.4090228,19.1370702 L0.4090228,19.1370702 Z M4.33348182,11.6842095 C5.10617044,11.6842095 5.73468864,12.2174047 5.73468864,12.8732087 L5.73468864,12.8732087 L5.73468864,15.9650429 C5.73468864,16.6204106 5.10617044,17.1540421 4.33348182,17.1540421 L4.33348182,17.1540421 L2.48086502,17.1540421 C1.70844639,17.1540421 1.07992818,16.6204106 1.07992818,15.9650429 L1.07992818,15.9650429 L1.07992818,12.8732087 C1.07992818,12.2174047 1.70844639,11.6842095 2.48086502,11.6842095 L2.48086502,11.6842095 Z M10.8130509,8.47357011 C11.5851996,8.47357011 12.2137178,9.00295788 12.2137178,9.65359601 L12.2137178,9.65359601 L12.2137178,15.9534187 C12.2137178,16.6038403 11.5851996,17.1334446 10.8130509,17.1334446 L10.8130509,17.1334446 L8.96016415,17.1334446 C8.1880155,17.1334446 7.55949729,16.6038403 7.55949729,15.9534187 L7.55949729,15.9534187 L7.55949729,9.65359601 C7.55949729,9.00295788 8.1880155,8.47357011 8.96016415,8.47357011 L8.96016415,8.47357011 Z M17.5634121,4.90216283 C18.3358308,4.90216283 18.964349,5.44578045 18.964349,6.11390763 L18.964349,6.11390763 L18.964349,15.9019152 C18.964349,16.5698201 18.3358308,17.11366 17.5634121,17.11366 L17.5634121,17.11366 L15.7102554,17.11366 C14.9372968,17.11366 14.3087786,16.5698201 14.3090484,15.9019152 L14.3090484,15.9019152 L14.3090484,6.11390763 C14.3090484,5.44555811 14.9375667,4.90216283 15.7102554,4.90216283 L15.7102554,4.90216283 Z M4.33348182,12.3786287 L2.48086502,12.3786287 C2.15931641,12.3786287 1.8977038,12.6005025 1.8977038,12.8732087 L1.8977038,12.8732087 L1.8977038,15.9650429 C1.8977038,16.2373128 2.15931641,16.4594048 2.48086502,16.4594048 L2.48086502,16.4594048 L4.33348182,16.4594048 C4.65503044,16.4594048 4.91637306,16.2373128 4.91637306,15.9650429 L4.91637306,15.9650429 L4.91637306,12.8732087 C4.91637306,12.6005025 4.65503044,12.3786287 4.33348182,12.3786287 L4.33348182,12.3786287 Z M10.8130509,9.16274854 L8.96016415,9.16274854 C8.63888551,9.16274854 8.37781288,9.38294787 8.37781288,9.65359601 L8.37781288,9.65359601 L8.37781288,15.9534187 C8.37781288,16.2236338 8.63888551,16.4440496 8.96016415,16.4440496 L8.96016415,16.4440496 L10.8130509,16.4440496 C11.1343296,16.4440496 11.3954022,16.2236338 11.3954022,15.9534187 L11.3954022,15.9534187 L11.3954022,9.65359601 C11.3954022,9.38294787 11.1343296,9.16274854 10.8130509,9.16274854 L10.8130509,9.16274854 Z M17.5634121,5.60986626 L15.7099854,5.60986626 C15.3889767,5.60986626 15.1270941,5.83598451 15.1270941,6.11390763 L15.1273641,6.11390763 L15.1273641,15.9019152 C15.1273641,16.1793937 15.3892467,16.4057343 15.7102554,16.4057343 L15.7102554,16.4057343 L17.5634121,16.4057343 C17.8844208,16.4057343 18.1460334,16.1793937 18.1460334,15.9019152 L18.1460334,15.9019152 L18.1460334,6.11390763 C18.1460334,5.83598451 17.8844208,5.60986626 17.5634121,5.60986626 L17.5634121,5.60986626 Z M8.26777963,0.000219860851 L8.34121253,0.00473650014 L12.8015859,0.705866957 C12.9749144,0.732969024 13.1279942,0.829994421 13.2324773,0.978784766 C13.3372303,1.12784613 13.3806974,1.31051406 13.3545091,1.49318199 L13.3545091,1.49318199 L12.6892734,6.19647459 C12.6593054,6.41030989 12.484357,6.56424963 12.2853802,6.56424963 C12.2648616,6.56424963 12.244343,6.5626235 12.2240943,6.55937125 C12.0010891,6.52413857 11.8466594,6.30488285 11.8798672,6.06909487 L11.8798672,6.06909487 L12.4373801,2.13089361 L3.03309552,9.402107 C2.96047035,9.4584793 2.87569598,9.48558136 2.79173157,9.48558136 C2.66591993,9.48558136 2.54145821,9.42460171 2.46154352,9.30968895 C2.32790241,9.1175353 2.36704981,8.84759872 2.54901771,8.70666797 L2.54901771,8.70666797 L11.942503,1.44331418 L8.22053055,0.85790955 C7.99671544,0.822947884 7.84282567,0.603421147 7.87630344,0.367633169 C7.90978122,0.132116212 8.11874732,-0.0302251655 8.34121253,0.00473650014 Z" id="path-1"></path>
    </defs>
    <g id="Symbols" stroke="none" stroke-width="1" fill="none" fill-rule="evenodd">
        <g id="Icons-/-Tradeview-/-Outline">
            <mask id="mask-2" fill="white">
                <use xlink:href="#path-1"></use>
            </mask>
            <use id="Shape" fill="#49DEB5" xlink:href="#path-1"></use>
        </g>
    </g>
</svg>