<?xml version="1.0" encoding="UTF-8"?>
<svg width="19px" height="20px" viewBox="0 0 19 20" version="1.1" xmlns="http://www.w3.org/2000/svg" xmlns:xlink="http://www.w3.org/1999/xlink">
    <!-- Generator: Sketch 61.2 (89653) - https://sketch.com -->
    <title>Shape</title>
    <desc>Created with Sketch.</desc>
    <g id="Symbols" stroke="none" stroke-width="1" fill="none" fill-rule="evenodd">
        <g id="Icons-/-Setting-/-Outline" transform="translate(-1.000000, 0.000000)" fill="#49DEB5">
            <path d="M11.5846922,0 C12.3802059,0 13.0275025,0.639340437 13.0277274,1.42579362 L13.0277274,1.42579362 L13.0277274,2.770253 C13.0277274,2.95425505 13.1916883,3.189591 13.3650954,3.2553695 C13.3808392,3.26136957 13.759591,3.40537117 14.2046918,3.66004067 C14.6549656,3.91693241 14.9664686,4.16582406 14.9797384,4.17649085 C15.123907,4.29226991 15.4120193,4.31471461 15.5723815,4.22293581 L15.5723815,4.22293581 L16.751595,3.55048389 C17.0842398,3.36048178 17.4735624,3.31070345 17.8460166,3.40914899 C18.2191456,3.50781675 18.5301989,3.74359715 18.7222737,4.07226747 L18.7222737,4.07226747 L19.8070241,5.92873254 C19.9993239,6.25718064 20.0497041,6.64140713 19.9500681,7.01007789 C19.8502072,7.37852643 19.6118005,7.68586318 19.2791557,7.87586529 L19.2791557,7.87586529 L18.1001672,8.5483172 C17.93958,8.63987378 17.8152037,8.89765442 17.8446672,9.07854532 C17.8473661,9.09454549 17.908992,9.47743864 17.908992,10.0003333 C17.908992,10.5225614 17.8478159,10.9056767 17.8448921,10.9216769 C17.8154286,11.10279 17.9398049,11.3603484 18.1003921,11.451905 L18.1003921,11.451905 L19.2789308,12.1243569 C19.6115756,12.3139146 19.8502072,12.6216958 19.9500681,12.9905888 C20.0497041,13.3588151 19.9990989,13.7428194 19.8070241,14.0714897 L19.8070241,14.0714897 L18.7222737,15.9279548 C18.5304238,16.2564028 18.2191456,16.4924055 17.8460166,16.5910732 C17.4733375,16.6895188 17.0842398,16.6395182 16.751595,16.4495161 L16.751595,16.4495161 L15.5732811,15.7775086 C15.4129189,15.6859521 15.1243568,15.7083968 14.9804132,15.8239536 C14.9675932,15.8346204 14.6556403,16.0837343 14.2051416,16.3408482 C13.7600408,16.5952955 13.3808392,16.7397416 13.3650954,16.7455194 C13.1916883,16.8112979 13.0277274,17.0470783 13.0277274,17.2304137 L13.0277274,17.2304137 L13.0277274,18.5744286 C13.0277274,19.3602151 12.3804308,20 11.5849171,20 L11.5849171,20 L9.41541622,20 C8.61990257,20 7.97260591,19.3602151 7.97260591,18.5744286 L7.97260591,18.5744286 L7.97260591,17.2304137 C7.97260591,17.0468561 7.80864508,16.8112979 7.63523795,16.7455194 C7.61949411,16.7397416 7.24074235,16.5955177 6.79541664,16.3408482 C6.34514287,16.0837343 6.03341488,15.8346204 6.02014507,15.8239536 C5.87642632,15.7083968 5.58831408,15.6855076 5.42772693,15.7775086 L5.42772693,15.7775086 L4.24873837,16.4499606 C3.55938317,16.8424094 2.67570403,16.608629 2.27760984,15.928177 L2.27760984,15.928177 L1.19285939,14.0717119 C1.00078456,13.7432638 0.95017937,13.3585929 1.05004029,12.9903666 C1.1499012,12.6214736 1.38808298,12.3139146 1.72072779,12.1241347 L1.72072779,12.1241347 L2.89994127,11.4516828 C3.0603035,11.3601262 3.18467983,11.1021234 3.15521636,10.9214547 C3.15251741,10.9054545 3.09111644,10.5225614 3.09111644,10.0001111 C3.09111644,9.47766086 3.15251741,9.09432327 3.15521636,9.07832309 C3.18490474,8.89743219 3.06052842,8.63965155 2.89994127,8.54809498 L2.89994127,8.54809498 L1.72072779,7.87542084 C1.38830789,7.68564095 1.1499012,7.3783042 1.05004029,7.00941122 C0.95017937,6.6411849 1.00078456,6.25695841 1.19285939,5.92828809 L1.19285939,5.92828809 L2.27760984,4.07182302 C2.46968466,3.74337493 2.78096283,3.50759453 3.15386688,3.40892677 C3.52722076,3.31048123 3.91564374,3.36025956 4.24828855,3.55003944 L4.24828855,3.55003944 L5.42795185,4.22293581 C5.58898882,4.31471461 5.87687615,4.29204769 6.02081981,4.17626863 C6.03363979,4.16582406 6.34514287,3.91693241 6.79541664,3.66004067 C7.24051744,3.40581562 7.6192692,3.26136957 7.63501304,3.2553695 C7.80842017,3.189591 7.972381,2.9538106 7.972381,2.77047523 L7.972381,2.77047523 L7.972381,1.4255714 C7.972381,0.639340437 8.61967766,0 9.41519131,0 L9.41519131,0 Z M11.5842424,0.707341193 L9.41474149,0.707341193 C9.01394835,0.707341193 8.6880509,1.029567 8.6880509,1.4255714 L8.6880509,1.4255714 L8.6880509,2.77047523 C8.6880509,3.2435916 8.33786296,3.74626385 7.89118778,3.91559906 C7.88826392,3.91648796 7.54707246,4.0473783 7.15347651,4.27226969 C6.7551574,4.49982778 6.47446726,4.72294137 6.4715434,4.72538584 C6.10021374,5.02361137 5.48462966,5.07183413 5.06966707,4.83516484 L5.06966707,4.83516484 L3.89000377,4.16226847 C3.72311909,4.06760075 3.52722076,4.04226714 3.33919435,4.09226769 C3.15049321,4.14204602 2.99395447,4.26049178 2.89746724,4.4253825 L2.89746724,4.4253825 L1.81271679,6.28184758 C1.71645446,6.44718275 1.6908145,6.64051823 1.74141969,6.82652029 C1.79179997,7.01274459 1.91167806,7.16785742 2.07856274,7.26296959 C2.33271327,7.40786009 2.45978854,7.48030534 2.45978854,7.48030534 C2.45978854,7.48030534 2.52996107,7.52030578 3.25777622,7.93564373 C3.67273881,8.1720908 3.93813494,8.72343026 3.86188978,9.19076879 C3.86143995,9.19365771 3.80723617,9.53766153 3.80723617,10.0003333 C3.80723617,10.4627829 3.86143995,10.8065645 3.86188978,10.8098979 C3.93768511,11.2765697 3.6725139,11.8281314 3.25777622,12.0645785 L3.25777622,12.0645785 L2.46158783,12.5179169 C2.4064844,12.5512506 2.30077577,12.6112512 2.0796873,12.7370304 C1.91280262,12.832587 1.79292453,12.9874776 1.74254425,13.1739242 C1.69193906,13.359704 1.71735411,13.5532617 1.81384135,13.7185969 L1.81384135,13.7185969 L2.8985918,15.5750619 C3.09876345,15.9175102 3.54386425,16.0357337 3.89157816,15.8375093 C4.08950069,15.7248414 4.20353106,15.660174 4.27415342,15.6192847 L4.27415342,15.6192847 L5.07034181,15.1655018 C5.48395493,14.9283881 6.10043865,14.9770553 6.47221814,15.2750586 C6.47469217,15.2777253 6.75583214,15.5015056 7.15392633,15.7286192 C7.55112087,15.9555106 7.88871375,16.0839565 7.89231234,16.0852898 C8.33921243,16.2546251 8.68917546,16.757964 8.68917546,17.2306359 L8.68917546,17.2306359 L8.68917546,18.5746508 C8.68917546,18.9706552 9.01507291,19.2926588 9.41586605,19.2926588 L9.41586605,19.2926588 L11.5853669,19.2926588 C11.9861601,19.2926588 12.3120575,18.9706552 12.3120575,18.5746508 L12.3120575,18.5746508 L12.3120575,17.2306359 C12.3120575,16.757964 12.6622455,16.2548473 13.1089206,16.0855121 C13.1120694,16.0846232 13.4534858,15.9535106 13.8475316,15.7286192 C14.2456258,15.5015056 14.5267657,15.2777253 14.5294647,15.2750586 C14.9010193,14.9770553 15.5172781,14.9286103 15.9315659,15.1655018 L15.9315659,15.1655018 L17.1096548,15.8372871 C17.2769893,15.9326215 17.4728877,15.9579551 17.6609141,15.9079545 C17.8493903,15.8577318 18.005929,15.7397304 18.1026412,15.5743953 L18.1026412,15.5743953 L19.1873916,13.7179302 C19.283654,13.5530395 19.3092939,13.3594818 19.2586887,13.1737019 C19.2080835,12.9872554 19.0884304,12.8323648 18.9213208,12.7368082 L18.9213208,12.7368082 L17.7425571,12.0645785 C17.3278194,11.8281314 17.0621984,11.276792 17.1382186,10.8094534 C17.1386685,10.8065645 17.1928723,10.4630051 17.1928723,10.0003333 C17.1928723,9.53766153 17.1384436,9.19387993 17.1382186,9.19032434 C17.0619735,8.72343026 17.3273696,8.1720908 17.7421073,7.93564373 L17.7421073,7.93564373 L18.9201962,7.26296959 C19.0873058,7.16785742 19.206959,7.01274459 19.2575642,6.82652029 C19.3081694,6.64074045 19.2827543,6.44718275 19.1862671,6.28184758 L19.1862671,6.28184758 L18.1015166,4.4253825 C18.0050294,4.26049178 17.8484907,4.14226825 17.6600144,4.09248992 C17.4708635,4.04226714 17.2756399,4.06737853 17.1087552,4.16293514 L17.1087552,4.16293514 L15.9295417,4.83516484 C15.5154788,5.07183413 14.8987701,5.02338915 14.5276654,4.72516361 C14.5249664,4.72271914 14.2440514,4.49938333 13.8459572,4.27204747 C13.4521363,4.0473783 13.1111698,3.91671019 13.1075712,3.91537684 C12.6611209,3.74626385 12.310933,3.24314715 12.310933,2.77003078 L12.310933,2.77003078 L12.310933,1.4255714 C12.310933,1.029567 11.9850355,0.707341193 11.5842424,0.707341193 L11.5842424,0.707341193 Z M10.4999418,6.10962344 C12.6707921,6.10962344 14.4374757,7.85519839 14.4374757,10.0005556 C14.4374757,12.1459127 12.6707921,13.8912655 10.4999418,13.8912655 C8.32909139,13.8912655 6.56240784,12.1459127 6.56240784,10.0005556 C6.56240784,7.85519839 8.32909139,6.10962344 10.4999418,6.10962344 Z M10.4999418,6.81740908 C8.7238119,6.81740908 7.27875248,8.24542495 7.27875248,10.0005556 C7.27875248,11.7554639 8.7238119,13.183702 10.4999418,13.183702 C12.2760716,13.183702 13.721131,11.7554639 13.721131,10.0005556 C13.721131,8.24542495 12.2760716,6.81740908 10.4999418,6.81740908 Z" id="Shape"></path>
        </g>
    </g>
</svg>