<?xml version="1.0" encoding="UTF-8"?>
<svg width="90px" height="81px" viewBox="0 0 90 81" version="1.1" xmlns="http://www.w3.org/2000/svg" xmlns:xlink="http://www.w3.org/1999/xlink">
    <!-- Generator: Sketch 61.2 (89653) - https://sketch.com -->
    <title>noun_documents_89867</title>
    <desc>Created with Sketch.</desc>
    <g id="Page-1" stroke="none" stroke-width="1" fill="none" fill-rule="evenodd">
        <g id="Custom-Preset" transform="translate(-503.000000, -236.000000)" fill="#000000" fill-rule="nonzero">
            <g id="noun_documents_89867" transform="translate(503.000000, 236.000000)">
                <path d="M89.6153666,15.288494 C89.3568368,15.0035859 88.9970395,14.8367807 88.6181801,14.8246051 L74.7433481,14.3302773 L73.6317889,1.33773551 C73.5984302,0.950552652 73.4161488,0.59259114 73.1254517,0.344209683 C72.8347545,0.0946106705 72.4558951,-0.0320151702 72.0806098,0.00694662696 L21.0799393,4.56912956 C20.2912446,4.63974782 19.7098503,5.34958306 19.7777591,6.15438768 L20.2614601,11.8087185 L1.18267252,15.2470971 C0.403508851,15.3871161 -0.115933597,16.1456535 0.0222666873,16.9419353 L10.7732957,79.2637649 C10.8948167,79.9736002 11.4988472,80.4727982 12.181509,80.4727982 C12.2637143,80.4727982 12.3483024,80.4654928 12.4316991,80.4496646 L33.8455949,76.5924467 L33.8110449,77.6602435 C33.7967483,78.0486439 33.9349486,78.4260863 34.1946698,78.7097769 C34.4531996,78.994685 34.8129969,79.1614902 35.1918563,79.1736658 L86.3557461,80.9987824 C86.3724255,81 86.3902962,81 86.4069755,81 C87.1742254,81 87.8092319,80.3778288 87.8366337,79.5876349 L89.9989916,16.3380274 C90.0132881,15.949627 89.8750879,15.5721846 89.6153666,15.288494 L89.6153666,15.288494 Z M33.9504365,73.6021288 L13.3466803,77.3144575 L3.09245749,17.8745833 L20.514033,14.7345059 L21.194312,22.6827126 L10.6279471,24.5869704 C9.84878347,24.7269894 9.32934102,25.4855268 9.4675413,26.2818086 C9.58906224,26.9916438 10.1930928,27.4908418 10.8757545,27.4908418 C10.9579599,27.4908418 11.042548,27.4835365 11.1259447,27.4677083 L21.4456935,25.6085 L21.9853895,31.9227463 L12.1969969,33.6869851 C11.4178332,33.8270041 10.8983908,34.5855416 11.0365911,35.3818233 C11.158112,36.0916586 11.7621426,36.5908566 12.4448043,36.5908566 C12.5270097,36.5908566 12.6115978,36.5835513 12.6949945,36.567723 L22.2355797,34.8473162 L22.8038688,41.4829972 L13.8184675,43.1011294 C13.0393038,43.2411483 12.5198614,43.9996858 12.6580617,44.7959676 C12.7795826,45.5058028 13.3836132,46.0050008 14.0662749,46.0050008 C14.1484802,46.0050008 14.2330684,45.9976955 14.3164651,45.9818673 L23.0540589,44.4087847 L23.6271136,51.1114314 L15.4566174,52.5822392 C14.6774538,52.7222582 14.1580113,53.4807957 14.2962116,54.2770774 C14.4177325,54.9869126 15.0217631,55.4861107 15.7044248,55.4861107 C15.7866302,55.4861107 15.8712183,55.4788053 15.954615,55.4629771 L23.8773037,54.0360013 L24.5540086,61.9501163 L17.3020678,63.2565541 C16.5229041,63.396573 16.0034617,64.1551105 16.1416619,64.9513922 C16.2631829,65.6612275 16.8672134,66.1604255 17.5498752,66.1604255 C17.6320805,66.1604255 17.7166686,66.1531202 17.8000654,66.1372919 L24.8041987,64.8746862 L25.1735271,69.195793 C25.2068858,69.5829759 25.3891672,69.9409374 25.6798643,70.1893188 C25.9383942,70.4121316 26.2648328,70.5326697 26.5996111,70.5326697 C26.6413094,70.5326697 26.6818164,70.5314521 26.7235148,70.5265819 L34.076723,69.8691016 L33.9504365,73.6021288 Z M36.0341632,14.1476439 L29.6912467,14.715025 C28.902552,14.7856433 28.3211577,15.4954785 28.3890665,16.3002832 C28.4545925,17.0624733 29.0800679,17.6359423 29.813959,17.6359423 C29.8556574,17.6359423 29.8973558,17.6347247 29.9402455,17.6298545 L35.8840491,17.099 L35.6660263,23.4546432 L30.4799415,23.9173145 C29.6912467,23.9879328 29.1098524,24.697768 29.1777612,25.5025726 C29.2420958,26.2647628 29.8687626,26.8382317 30.6026538,26.8382317 C30.6443521,26.8382317 30.6860505,26.8370142 30.7289402,26.832144 L35.5659502,26.3999115 L35.3372049,33.0806422 L31.2948466,33.4422564 C30.5061519,33.5128746 29.9247576,34.2227099 29.9926663,35.0275145 C30.0570009,35.7897046 30.6836677,36.3631736 31.4175589,36.3631736 C31.4592573,36.3631736 31.5009556,36.361956 31.5438454,36.3570858 L35.2371288,36.0271281 L35.0060008,42.7748243 L32.1145172,43.0329462 C31.3258225,43.1035645 30.7444282,43.8133997 30.812337,44.6182044 C30.8766716,45.3803945 31.5033384,45.9538635 32.2372296,45.9538635 C32.2789279,45.9538635 32.3206263,45.9526459 32.363516,45.9477757 L34.9059247,45.7213102 L34.6330983,53.6914329 L33.0402209,53.8338869 C32.2515261,53.9045052 31.6701318,54.6143404 31.7380406,55.4191451 C31.8035666,56.1813352 32.429042,56.7548042 33.1629332,56.7548042 C33.2046315,56.7548042 33.2463299,56.7535866 33.2892196,56.7487164 L34.5318308,56.6379188 L34.1791818,66.9250508 L27.9017913,67.4863442 L22.7574049,7.35611561 L70.904716,3.04840192 L71.8613956,14.226785 L72.2974413,14.2426133 L66.2571358,14.0271058 C66.5478329,13.7312397 66.7265402,13.3257935 66.6872246,12.8752977 C66.6181245,12.0704931 65.917592,11.4763257 65.1360456,11.5445088 L45.5997674,13.2904843 L37.4566731,13.000706 C36.7156336,12.9422633 36.1759377,13.4694651 36.0341632,14.1476439 L36.0341632,14.1476439 Z M85.0249727,78.0230752 L36.7227819,76.2990157 L38.7886379,15.9776308 L87.0872545,17.6980376 L85.0249727,78.0230752 Z" id="Shape"></path>
                <path d="M45.4025392,26.7922099 L81.4958746,27.9988387 C81.5140149,28 81.530946,28 81.547877,28 C82.3267046,28 82.9712932,27.406557 82.9991085,26.6528495 C83.0269237,25.8817219 82.4004755,25.2348574 81.5974608,25.209308 L45.5041254,24.0026792 C44.6394334,23.9539031 44.0274975,24.5775409 44.0008915,25.3486684 C43.9730763,26.1197959 44.5995245,26.7654991 45.4025392,26.7922099 L45.4025392,26.7922099 Z" id="Path"></path>
                <path d="M45.4024942,36.7910683 L81.4959211,37.9988398 C81.5128516,38 81.5309915,38 81.547922,38 C82.3267254,38 82.9712941,37.4071362 82.9991085,36.6541643 C83.0269229,35.8849496 82.4004941,35.2375562 81.5975042,35.2120317 L45.5040772,34.0042602 C44.7313204,33.9416092 44.0287043,34.5785607 44.0008899,35.3489357 C43.9730755,36.1193106 44.6007136,36.7643836 45.4024942,36.7910683 Z" id="Path"></path>
                <path d="M44.4025392,44.7893217 L80.4958746,45.9988392 C80.5128056,46 80.530946,46 80.547877,46 C81.3267046,46 81.9712932,45.4068489 81.9991085,44.6535121 C82.0269237,43.8839246 81.4004755,43.2362175 80.5974608,43.2106807 L44.5041254,42.0011631 C43.7277166,41.9698225 43.0287068,42.575742 43.0008915,43.3464903 C42.9730763,44.1160777 43.5995245,44.7626241 44.4025392,44.7893217 Z" id="Path"></path>
                <path d="M44.4025392,55.78978 L80.4958746,56.9988386 C80.5128056,57 80.530946,57 80.547877,57 C81.3267046,57 81.9712932,56.4065044 81.9991085,55.6527302 C82.0269237,54.8826958 81.4004755,54.2346126 80.5974608,54.2090609 L44.5041254,53.0011638 C43.7313447,52.9698049 43.0287068,53.5760764 43.0008915,54.3472722 C42.9730763,55.118468 43.5995245,55.7642284 44.4025392,55.78978 L44.4025392,55.78978 Z" id="Path"></path>
                <path d="M44.4026682,65.7895148 L80.4957346,66.9988394 C80.5126672,67 80.5308092,67 80.5477419,67 C81.3266419,67 81.9712905,66.4069435 81.9991084,65.653727 C82.0269262,64.8842623 81.4004197,64.2366585 80.5973302,64.2111257 L44.5042638,63.0018012 C43.7084312,62.9623414 43.0274984,63.5762884 43.00089,64.3469136 C42.9730721,65.1163783 43.6007882,65.7628215 44.4026682,65.7895148 L44.4026682,65.7895148 Z" id="Path"></path>
            </g>
        </g>
    </g>
</svg>