<?xml version="1.0" encoding="UTF-8"?>
<svg width="22px" height="22px" viewBox="0 0 22 22" version="1.1" xmlns="http://www.w3.org/2000/svg" xmlns:xlink="http://www.w3.org/1999/xlink">
    <!-- Generator: Sketch 61.2 (89653) - https://sketch.com -->
    <title>Group</title>
    <desc>Created with Sketch.</desc>
    <g id="Symbols" stroke="none" stroke-width="1" fill="none" fill-rule="evenodd">
        <g id="Icons-/-Crypto-/-Lisk_O" transform="translate(1.000000, 1.000000)">
            <g id="Group">
                <g id="LSK" stroke="#555454">
                    <path d="M9.96480597,19.9996418 C4.46938308,19.9996418 0.0145572139,15.5448159 0.0145572139,10.049393 C0.0145572139,4.55397015 4.46938308,0.0991442786 9.96480597,0.0991442786 C15.4602289,0.0991442786 19.9150547,4.55397015 19.9150547,10.049393 C19.9150547,15.5448159 15.4602289,19.9996418 9.96480597,19.9996418 Z" id="Fill-504"></path>
                </g>
                <g id="eloop" transform="translate(2.000000, 6.000000)" fill="#4ADEB5" fill-rule="nonzero">
                    <path d="M7.32551414,0 C7.33708226,0.102409639 7.34286632,0.207831325 7.34286632,0.313253012 C7.34286632,1.05590677 7.07893443,1.73560504 6.64363789,2.25593907 C6.12204881,2.87942337 5.35441856,3.27409639 4.5,3.27409639 C2.93251928,3.27409639 1.65713368,1.94578313 1.65713368,0.313253012 C1.65713368,0.207831325 1.66291774,0.102409639 1.67448586,0 L0.0115681234,0 C0.0057840617,0.102409639 0,0.207831325 0,0.313253012 C0,2.89759036 2.01863753,5 4.5,5 C6.98136247,5 9,2.89759036 9,0.313253012 C9,0.207831325 8.99421594,0.102409639 8.98843188,0 L7.32551414,0 Z" id="Path"></path>
                    <path d="M8.70051414,9 C8.67448586,8.84048724 8.65713368,8.67807425 8.65713368,8.51276102 C8.65713368,6.94083527 9.93251928,5.66183295 11.5,5.66183295 C13.0674807,5.66183295 14.3428663,6.94083527 14.3428663,8.51276102 C14.3428663,8.67807425 14.3284062,8.84048724 14.2994859,9 L15.9739717,9 C15.9913239,8.84048724 16,8.67807425 16,8.51276102 C16,6.02436195 13.9813625,4 11.5,4 C9.01863753,4 7,6.02436195 7,8.51276102 C7,8.67807425 7.00867609,8.84048724 7.02602828,9 L8.70051414,9 Z" id="Path"></path>
                </g>
            </g>
        </g>
    </g>
</svg>