<?xml version="1.0" encoding="UTF-8"?>
<svg width="20px" height="18px" viewBox="0 0 20 18" version="1.1" xmlns="http://www.w3.org/2000/svg" xmlns:xlink="http://www.w3.org/1999/xlink">
    <!-- Generator: Sketch 61.2 (89653) - https://sketch.com -->
    <title>Shape</title>
    <desc>Created with Sketch.</desc>
    <g id="Symbols" stroke="none" stroke-width="1" fill="none" fill-rule="evenodd">
        <g id="Icons-/-Exchange" transform="translate(0.000000, -1.000000)" fill="#49DEB5">
            <path d="M17.7835408,11.5169537 C17.9255385,11.4610139 18.0822026,11.462762 18.2237559,11.5221981 C18.3650869,11.5818527 18.4744185,11.6919843 18.5317509,11.8324894 L18.5317509,11.8324894 L19.9743942,15.3881655 C20.0477264,15.5686589 19.9581723,15.773626 19.7743975,15.8459545 C19.5906227,15.9180644 19.3821816,15.8302214 19.3088494,15.6495095 L19.3088494,15.6495095 L18.1297574,12.7443525 C17.4795457,14.7063987 16.221566,16.3817532 14.5213713,17.5245867 C13.0751725,18.4969785 11.4369768,19 9.77700361,19 C9.18390209,19 8.58813395,18.9357566 7.99725461,18.8059587 C4.76975126,18.0960034 2.28356925,15.5100969 1.57891398,12.1698766 C1.5386924,11.979113 1.67113471,11.79709 1.86624266,11.7647497 C2.06135062,11.7324095 2.24534764,11.8617704 2.28645809,12.052097 C2.94111417,15.1089033 5.21152189,17.4706135 8.15369653,18.1178549 C10.2018856,18.5690884 12.3196292,18.1515062 14.1167112,16.9428998 C15.7242408,15.8621246 16.9028884,14.2630318 17.4908788,12.3903582 L17.4908788,12.3903582 L14.433595,13.5904426 C14.2500424,13.6625525 14.0413791,13.5747095 13.9680469,13.3935606 C13.8947148,13.2132857 13.9842689,13.0083186 14.1680437,12.9359902 L14.1680437,12.9359902 Z M5.47951756,2.47545847 C7.4423747,1.15584637 9.75878168,0.700461107 12.0031898,1.1940865 C15.230471,1.90404174 17.7168752,4.48929274 18.4208638,7.82885752 C18.4613076,8.01962112 18.3286431,8.20164412 18.1335351,8.23398434 C17.9384272,8.26632456 17.7544301,8.13674516 17.7135419,7.94641859 C17.0591081,4.89048628 14.7884781,2.52899465 11.8467479,1.88197173 C9.79855881,1.43073825 7.68103751,1.84853893 5.88395546,3.05714541 C4.2764259,4.13813913 3.0977783,5.73657637 2.50956559,7.60837588 L2.50956559,7.60837588 L5.56618282,6.40851 C5.74973541,6.33640005 5.95862092,6.42424308 6.03195307,6.60495499 C6.10528521,6.7856669 6.01595332,6.99063397 5.8319563,7.06296244 L5.8319563,7.06296244 L2.21690366,8.48199886 C2.14757144,8.50909472 2.07579483,8.52264265 2.00401821,8.52264265 C1.92690835,8.52264265 1.84957626,8.50712809 1.77646634,8.47631747 C1.63491307,8.41666288 1.52580372,8.30653132 1.46869354,8.16624469 L1.46869354,8.16624469 L0.025605764,4.61122411 C-0.0477263833,4.4305122 0.0418277239,4.22554513 0.225602529,4.15321666 C0.409155116,4.08110671 0.617818408,4.16916826 0.691150555,4.34988017 L0.691150555,4.34988017 L1.87113147,7.25525564 C2.52134318,5.29364646 3.77932283,3.61872897 5.47951756,2.47545847 Z" id="Shape"></path>
        </g>
    </g>
</svg>