<?xml version="1.0" encoding="UTF-8"?>
<svg width="20px" height="20px" viewBox="0 0 20 20" version="1.1" xmlns="http://www.w3.org/2000/svg" xmlns:xlink="http://www.w3.org/1999/xlink">
    <!-- Generator: Sketch 61.2 (89653) - https://sketch.com -->
    <title>Shape</title>
    <desc>Created with Sketch.</desc>
    <g id="Symbols" stroke="none" stroke-width="1" fill="none" fill-rule="evenodd">
        <g id="Icons-/-Menu-/-Outline" fill="#49DEB5">
            <path d="M6.24866667,11.254 C7.62555556,11.254 8.746,12.3744444 8.746,13.7513333 L8.746,13.7513333 L8.746,17.5026667 C8.746,18.8795556 7.62555556,20 6.24866667,20 L6.24866667,20 L2.49733333,20 C1.12044444,20 0,18.8795556 0,17.5026667 L0,17.5026667 L0,13.7513333 C0,12.3744444 1.12044444,11.254 2.49733333,11.254 L2.49733333,11.254 Z M17.5026667,11.254 C18.8795556,11.254 20,12.3744444 20,13.7513333 L20,13.7513333 L20,17.5026667 C20,18.8795556 18.8795556,20 17.5026667,20 L17.5026667,20 L13.7513333,20 C12.3744444,20 11.254,18.8795556 11.254,17.5026667 L11.254,17.5026667 L11.254,13.7513333 C11.254,12.3744444 12.3744444,11.254 13.7513333,11.254 L13.7513333,11.254 Z M6.24866667,11.9615556 L2.49733333,11.9615556 C1.51022222,11.9615556 0.707333333,12.7642222 0.707333333,13.7513333 L0.707333333,13.7513333 L0.707333333,17.5026667 C0.707333333,18.4897778 1.51044444,19.2926667 2.49733333,19.2926667 L2.49733333,19.2926667 L6.24866667,19.2926667 C7.23555556,19.2926667 8.03844444,18.4895556 8.03844444,17.5026667 L8.03844444,17.5026667 L8.03844444,13.7513333 C8.03844444,12.764 7.23533333,11.9615556 6.24866667,11.9615556 L6.24866667,11.9615556 Z M17.5026667,11.9615556 L13.7513333,11.9615556 C12.7642222,11.9615556 11.9615556,12.7642222 11.9615556,13.7513333 L11.9615556,13.7513333 L11.9615556,17.5026667 C11.9615556,18.4897778 12.7644444,19.2926667 13.7513333,19.2926667 L13.7513333,19.2926667 L17.5024444,19.2926667 C18.4897778,19.2926667 19.2924444,18.4895556 19.2924444,17.5026667 L19.2926667,17.5026667 L19.2926667,13.7513333 C19.2926667,12.764 18.4897778,11.9615556 17.5026667,11.9615556 L17.5026667,11.9615556 Z M6.24866667,1.10134124e-13 C7.62555556,1.10134124e-13 8.746,1.12044444 8.746,2.49733333 L8.746,2.49733333 L8.746,6.24866667 C8.746,7.62555556 7.62555556,8.74577778 6.24866667,8.74577778 L6.24866667,8.74577778 L2.49733333,8.74577778 C1.12044444,8.74577778 0,7.62555556 0,6.24866667 L0,6.24866667 L0,2.49733333 C0,1.12044444 1.12044444,1.10134124e-13 2.49733333,1.10134124e-13 L2.49733333,1.10134124e-13 Z M17.5026667,1.10134124e-13 C18.8795556,1.10134124e-13 20,1.12044444 20,2.49733333 L20,2.49733333 L20,6.24866667 C20,7.62555556 18.8795556,8.74577778 17.5026667,8.74577778 L17.5026667,8.74577778 L13.7513333,8.74577778 C12.3744444,8.74577778 11.254,7.62555556 11.254,6.24866667 L11.254,6.24866667 L11.254,2.49733333 C11.254,1.12044444 12.3744444,1.10134124e-13 13.7513333,1.10134124e-13 L13.7513333,1.10134124e-13 Z M6.24866667,0.707111111 L2.49733333,0.707111111 C1.51022222,0.707111111 0.707333333,1.51022222 0.707333333,2.49733333 L0.707333333,2.49733333 L0.707333333,6.24866667 C0.707333333,7.23555556 1.51044444,8.03844444 2.49733333,8.03844444 L2.49733333,8.03844444 L6.24866667,8.03844444 C7.23555556,8.03844444 8.03844444,7.23533333 8.03844444,6.24866667 L8.03844444,6.24866667 L8.03844444,2.49733333 C8.03844444,1.51 7.23533333,0.707111111 6.24866667,0.707111111 L6.24866667,0.707111111 Z M17.5026667,0.707111111 L13.7513333,0.707111111 C12.7642222,0.707111111 11.9615556,1.51022222 11.9615556,2.49733333 L11.9615556,2.49733333 L11.9615556,6.24866667 C11.9615556,7.23555556 12.7644444,8.03844444 13.7513333,8.03844444 L13.7513333,8.03844444 L17.5024444,8.03844444 C18.4897778,8.03844444 19.2924444,7.23533333 19.2924444,6.24866667 L19.2926667,6.24866667 L19.2926667,2.49733333 C19.2926667,1.51 18.4897778,0.707111111 17.5026667,0.707111111 L17.5026667,0.707111111 Z" id="Shape"></path>
        </g>
    </g>
</svg>